<?xml version="1.0" encoding="UTF-8" standalone="no"?>
<svg
   height="128"
   width="128"
   version="1.1"
   id="svg24"
   sodipodi:docname="icon.svg"
   inkscape:version="1.1.2 (b8e25be833, 2022-02-05)"
   xmlns:inkscape="http://www.inkscape.org/namespaces/inkscape"
   xmlns:sodipodi="http://sodipodi.sourceforge.net/DTD/sodipodi-0.dtd"
   xmlns="http://www.w3.org/2000/svg"
   xmlns:svg="http://www.w3.org/2000/svg">
  <defs
     id="defs28">
    <pattern
       id="EMFhbasepattern"
       patternUnits="userSpaceOnUse"
       width="6"
       height="6"
       x="0"
       y="0" />
  </defs>
  <sodipodi:namedview
     id="namedview26"
     pagecolor="#ffffff"
     bordercolor="#666666"
     borderopacity="1.0"
     inkscape:pageshadow="2"
     inkscape:pageopacity="0.0"
     inkscape:pagecheckerboard="0"
     showgrid="false"
     inkscape:zoom="3.2851563"
     inkscape:cx="41.398335"
     inkscape:cy="10.045184"
     inkscape:window-width="1920"
     inkscape:window-height="1027"
     inkscape:window-x="-8"
     inkscape:window-y="-8"
     inkscape:window-maximized="1"
     inkscape:current-layer="svg24" />
  <path
     style="fill:#000000;stroke-width:3.38272"
     d="M 25.733553,104.14127 C 20.183683,100.46335 19.635407,97.967911 22.434065,89.123904 25.17961,80.447738 28.369042,77.864969 39.958974,74.932422 51.53239,72.004052 54.333429,69.741005 55.251832,62.57684 56.321456,54.233091 55.629756,53.803861 41.0387,53.756947 29.826779,53.720897 27.134899,52.867938 31.031154,50.585914 33.962613,48.868967 40.758267,47.442003 46.132607,47.414881 58.070183,47.354631 59.303374,39.47384 47.90925,36.06113 l -7.994888,-2.394587 8.14947,-1.443689 c 6.166083,-1.09233 7.621177,-2.95222 5.978797,-7.642044 -1.664571,-4.75319 -0.457926,-6.198355 5.175342,-6.198355 4.893042,0 7.346015,2.079242 7.346015,6.226789 0,4.31391 3.001827,6.647568 9.771528,7.596507 9.42299,1.320863 9.486363,1.456755 1.776641,3.809843 -4.397187,1.342068 -7.994887,4.603386 -7.994887,7.247374 0,3.59774 3.129032,4.476183 12.436491,3.491401 6.84007,-0.723718 12.436491,-0.157687 12.436491,1.257848 0,1.415532 -5.596421,2.573697 -12.436491,2.573697 -11.326488,0 -12.436491,0.825549 -12.436491,9.249452 0,8.374368 1.412054,9.454089 14.925161,11.412455 18.109471,2.624489 24.160951,6.757916 24.160951,16.503001 0,14.798658 -3.3873,17.580978 -21.403749,17.580978 -10.316851,0 -17.823169,-1.59539 -18.939674,-4.02544 -1.345859,-2.929211 -3.226544,-2.490722 -6.906075,1.61018 -6.108556,6.80808 -26.742413,7.50578 -36.220329,1.22473 z m 30.045565,-5.038458 c 6.071843,-10.2823 4.285061,-13.093092 -8.323107,-13.093092 -15.882565,0 -23.761294,7.99048 -14.287148,14.48979 9.438447,6.47483 18.284705,5.92837 22.610255,-1.396698 z M 101.53232,96.69932 c 4.81411,-7.796313 -3.415707,-13.909946 -18.724753,-13.909946 -8.629404,0 -12.690299,1.472158 -12.690299,4.600492 0,12.660934 24.806387,20.011994 31.415052,9.309454 z"
     id="path338" />
</svg>
